<svg width="19" height="18" viewBox="0 0 19 18" fill="none" xmlns="http://www.w3.org/2000/svg">
<path d="M17.1721 4.96504C16.389 3.6699 15.3262 2.64459 13.9837 1.8891C12.6412 1.13361 11.1788 0.755859 9.58862 0.755859C7.9984 0.755859 6.53204 1.13361 5.18954 1.8891C3.84704 2.64459 2.78423 3.6699 2.0011 4.96504C1.21798 6.26017 0.826416 7.67479 0.826416 9.2089C0.826416 11.0475 1.38179 12.705 2.49655 14.1774C3.6113 15.6499 5.04969 16.6675 6.81572 17.2302C7.01949 17.2688 7.17132 17.2418 7.27121 17.1531C7.3711 17.0645 7.41904 16.9566 7.41904 16.8217C7.41904 16.7985 7.41904 16.6019 7.41505 16.2281C7.41105 15.8542 7.41105 15.5265 7.41105 15.249L7.14735 15.2914C6.97954 15.3222 6.76777 15.3338 6.51605 15.3299C6.26034 15.3261 5.99663 15.2991 5.72494 15.2529C5.44925 15.2066 5.19753 15.0948 4.96179 14.9214C4.72606 14.7479 4.55824 14.5243 4.45835 14.243L4.34248 13.9886C4.26657 13.819 4.1467 13.6339 3.98289 13.4258C3.81907 13.2215 3.65525 13.0827 3.48744 13.0095L3.40753 12.9555C3.35559 12.917 3.30365 12.8746 3.2597 12.8245C3.21574 12.7744 3.17978 12.7204 3.15581 12.6703C3.13184 12.6202 3.15182 12.5778 3.21175 12.5431C3.27168 12.5084 3.38356 12.493 3.54338 12.493L3.77112 12.5277C3.92295 12.5585 4.11074 12.6433 4.33449 12.7936C4.55824 12.9401 4.74204 13.1328 4.88588 13.3641C5.06168 13.6648 5.27344 13.896 5.51717 14.0502C5.76489 14.2083 6.01262 14.2854 6.26434 14.2854C6.51605 14.2854 6.73181 14.2661 6.91561 14.2314C7.0994 14.1928 7.26721 14.1389 7.42703 14.0656C7.49496 13.5723 7.68275 13.1945 7.98641 12.9324C7.55489 12.89 7.16333 12.8206 6.81572 12.7358C6.46811 12.6472 6.1125 12.5046 5.74492 12.308C5.37733 12.1114 5.06967 11.8647 4.82594 11.5717C4.58222 11.2788 4.38244 10.8933 4.22661 10.4154C4.07079 9.93742 3.99088 9.39007 3.99088 8.76563C3.99088 7.87908 4.29054 7.12359 4.89387 6.49915C4.61418 5.83231 4.63815 5.08453 4.97378 4.2558C5.19353 4.19027 5.52117 4.24038 5.95668 4.40613C6.39219 4.57187 6.70784 4.71449 6.90762 4.83013C7.10739 4.94576 7.27121 5.04598 7.39108 5.12693C8.09828 4.93805 8.82947 4.84169 9.58063 4.84169C10.3318 4.84169 11.063 4.93805 11.7702 5.12693L12.2017 4.86482C12.4974 4.68751 12.849 4.52562 13.2525 4.37914C13.6561 4.23267 13.9637 4.19027 14.1755 4.25965C14.5191 5.08838 14.5471 5.83617 14.2674 6.50301C14.8667 7.12744 15.1704 7.88294 15.1704 8.76948C15.1704 9.39392 15.0905 9.94512 14.9346 10.4269C14.7788 10.9088 14.579 11.2942 14.3313 11.5833C14.0836 11.8724 13.7759 12.1191 13.4083 12.3157C13.0408 12.5123 12.6812 12.6587 12.3375 12.7435C11.9899 12.8322 11.6024 12.8977 11.1669 12.9401C11.5624 13.2716 11.7582 13.792 11.7582 14.5012V16.8217C11.7582 16.9527 11.8061 17.0645 11.902 17.1531C11.9979 17.2418 12.1458 17.2688 12.3535 17.2302C14.1196 16.6636 15.5579 15.646 16.6727 14.1774C17.7875 12.705 18.3428 11.0514 18.3428 9.2089C18.3468 7.67479 17.9553 6.26017 17.1721 4.96504Z" fill="white"/>
</svg>
