<svg width="18" height="19" viewBox="0 0 18 19" fill="none" xmlns="http://www.w3.org/2000/svg">
<path d="M8.7602 18.2763C7.95289 18.2763 7.17707 18.1703 6.42987 17.9614C5.68268 17.7524 4.98416 17.4575 4.33716 17.0767C3.69016 16.696 3.10043 16.2408 2.56794 15.7112C2.03546 15.1787 1.58027 14.589 1.20238 13.942C0.821627 13.295 0.526757 12.5964 0.317772 11.8493C0.105924 11.0992 0 10.3234 0 9.51606C0 8.70875 0.105924 7.93293 0.314909 7.18573C0.523895 6.43854 0.818764 5.74001 1.19952 5.09302C1.58027 4.44602 2.03546 3.85628 2.56508 3.3238C3.0947 2.79132 3.6873 2.33613 4.3343 1.95824C4.98129 1.58035 5.67982 1.28262 6.42701 1.07363C7.17421 0.864646 7.95289 0.755859 8.7602 0.755859C9.96258 0.755859 11.0991 0.987747 12.1669 1.44866C13.2348 1.90957 14.1652 2.53367 14.9525 3.3238C15.7397 4.11394 16.3667 5.04149 16.8276 6.10932C17.2885 7.17715 17.5204 8.31368 17.5204 9.51606C17.5204 10.3234 17.4145 11.0992 17.2055 11.8464C16.9965 12.5936 16.7016 13.2921 16.3209 13.9391C15.9401 14.5861 15.4849 15.1758 14.9553 15.7083C14.4228 16.2408 13.8331 16.696 13.1861 17.0739C12.5391 17.4546 11.8406 17.7495 11.0934 17.9585C10.3433 18.1703 9.56752 18.2763 8.7602 18.2763ZM12.9829 5.90606H4.67783C4.59481 5.90606 4.52611 5.93182 4.46885 5.98622C4.41159 6.04061 4.3801 6.11218 4.3801 6.20379V7.13134C4.3801 7.17715 4.39728 7.20005 4.43163 7.20005L8.79456 9.68783L8.82891 9.70501C8.85181 9.70501 8.86899 9.69928 8.88044 9.68783L13.1031 7.20005C13.126 7.1886 13.1432 7.18287 13.1546 7.18287C13.1661 7.18287 13.1832 7.17715 13.2062 7.16569C13.252 7.16569 13.2749 7.14279 13.2749 7.09699V6.20379C13.2749 6.10932 13.2462 6.03775 13.1861 5.98622C13.126 5.93469 13.063 5.90606 12.9829 5.90606ZM7.02534 9.63916C7.03679 9.62771 7.04252 9.61054 7.04252 9.58763C7.04252 9.55328 7.03107 9.5361 7.00816 9.5361L4.5032 8.09897C4.46885 8.08752 4.44022 8.08752 4.41446 8.09897C4.39155 8.09897 4.3801 8.11615 4.3801 8.1505V11.918C4.3801 11.9523 4.39728 11.9752 4.43163 11.9867H4.46599C4.48889 11.9867 4.50034 11.9809 4.50034 11.9695L7.02534 9.63916ZM10.0742 9.91972C10.0628 9.88537 10.0342 9.87964 9.98549 9.90254L9.02358 10.4608C8.90621 10.5295 8.78311 10.5295 8.65428 10.4608L7.81261 9.98843C7.77826 9.96552 7.74963 9.96552 7.72387 9.98843L4.51752 12.9658C4.50607 12.9772 4.50034 13.0001 4.50034 13.0345C4.50034 13.0459 4.51179 13.0631 4.53469 13.086C4.6034 13.1089 4.65207 13.1203 4.67497 13.1203H12.8912C12.9141 13.1203 12.937 13.1089 12.9599 13.086C12.9599 13.0402 12.9542 13.0116 12.9428 12.9972L10.0742 9.91972ZM13.2291 8.0274H13.1603L10.7785 9.44736C10.7556 9.44736 10.7441 9.46453 10.7441 9.49889C10.7327 9.51034 10.7384 9.52751 10.7613 9.55042L13.1432 12.1269C13.1661 12.1498 13.1832 12.1613 13.1947 12.1613H13.2291C13.2634 12.1269 13.2806 12.104 13.2806 12.0926V8.09611C13.2806 8.07321 13.2634 8.0503 13.2291 8.0274Z" fill="white"/>
</svg>
