<svg width="18" height="19" viewBox="0 0 18 19" fill="none" xmlns="http://www.w3.org/2000/svg">
<g clip-path="url(#clip0)">
<path d="M10.9164 9.48486C10.9164 10.4122 10.167 11.1616 9.23969 11.1616C8.31234 11.1616 7.56293 10.4122 7.56293 9.48486C7.56293 8.55751 8.31234 7.80811 9.23969 7.80811C10.167 7.80811 10.9164 8.55751 10.9164 9.48486Z" fill="white"/>
<path d="M13.1612 6.51771C13.0791 6.2987 12.9525 6.10023 12.7848 5.9394C12.624 5.77172 12.4255 5.64511 12.2065 5.56298C12.0286 5.49454 11.7617 5.41242 11.2723 5.38846C10.7419 5.36451 10.5811 5.35767 9.23967 5.35767C7.89484 5.35767 7.73743 5.36109 7.20703 5.38846C6.71769 5.41242 6.45078 5.49454 6.27284 5.56298C6.05383 5.64511 5.85536 5.77172 5.69453 5.9394C5.52685 6.10023 5.40024 6.2987 5.31811 6.51771C5.24967 6.69565 5.16754 6.96256 5.14359 7.4519C5.11964 7.98231 5.11279 8.13971 5.11279 9.48454C5.11279 10.8259 5.11964 10.9868 5.14359 11.5172C5.16754 12.0065 5.24625 12.2734 5.31811 12.4514C5.40024 12.6704 5.52685 12.8689 5.69453 13.0297C5.85536 13.1974 6.05383 13.324 6.27284 13.4061C6.45078 13.4745 6.71769 13.5567 7.20703 13.5806C7.73743 13.6046 7.89484 13.6114 9.23967 13.6114C10.5845 13.6114 10.7419 13.608 11.2723 13.5806C11.7617 13.5567 12.0286 13.478 12.2065 13.4061C12.6445 13.2384 12.9936 12.8894 13.1612 12.4514C13.2297 12.2734 13.3118 12.0065 13.3358 11.5172C13.3597 10.9868 13.3665 10.8259 13.3665 9.48454C13.3665 8.13971 13.3631 7.98231 13.3358 7.4519C13.3118 6.96256 13.2297 6.69565 13.1612 6.51771ZM9.23967 12.0681C7.81272 12.0681 6.65609 10.9115 6.65609 9.48454C6.65609 8.05759 7.81272 6.90097 9.23967 6.90097C10.6666 6.90097 11.8232 8.05759 11.8232 9.48454C11.8232 10.9115 10.6666 12.0681 9.23967 12.0681ZM11.9259 7.40399C11.594 7.40399 11.3236 7.13366 11.3236 6.80173C11.3236 6.4698 11.594 6.19947 11.9259 6.19947C12.2578 6.19947 12.5282 6.4698 12.5282 6.80173C12.5282 7.13366 12.2578 7.40399 11.9259 7.40399Z" fill="white"/>
<path d="M9.2397 0.724609C4.40105 0.724609 0.479492 4.64617 0.479492 9.48481C0.479492 14.3235 4.40105 18.245 9.2397 18.245C14.0783 18.245 17.9999 14.3235 17.9999 9.48481C17.9999 4.64617 14.0783 0.724609 9.2397 0.724609ZM14.2392 11.5585C14.2152 12.0923 14.1297 12.4585 14.0065 12.7802C13.7464 13.4543 13.2126 13.9915 12.535 14.2516C12.2168 14.3748 11.8506 14.4603 11.3134 14.4843C10.7762 14.5082 10.6051 14.5151 9.2397 14.5151C7.87434 14.5151 7.70324 14.5082 7.16599 14.4843C6.63217 14.4603 6.26602 14.3748 5.94435 14.2516C5.609 14.125 5.30445 13.9265 5.05465 13.6699C4.798 13.4201 4.59953 13.1155 4.47291 12.7802C4.34972 12.4619 4.26417 12.0958 4.24022 11.5585C4.21627 11.0213 4.20942 10.8502 4.20942 9.48481C4.20942 8.11945 4.21627 7.94836 4.24022 7.41111C4.26417 6.87728 4.34972 6.51113 4.47291 6.18947C4.59953 5.85412 4.798 5.54956 5.05465 5.29976C5.30445 5.04312 5.609 4.84464 5.94435 4.71803C6.26602 4.59484 6.62874 4.50929 7.16599 4.48534C7.70324 4.46138 7.87434 4.45454 9.2397 4.45454C10.6051 4.45454 10.7762 4.46138 11.3134 4.48534C11.8472 4.50929 12.2134 4.59484 12.535 4.71803C12.8704 4.84464 13.1749 5.04312 13.4247 5.29976C13.6814 5.54956 13.8799 5.85412 14.0065 6.18947C14.1297 6.51113 14.2152 6.87386 14.2392 7.41111C14.2631 7.94836 14.27 8.11945 14.27 9.48481C14.27 10.8502 14.2631 11.0213 14.2392 11.5585Z" fill="white"/>
</g>
<defs>
<clipPath id="clip0">
<rect width="17.5204" height="17.5204" fill="white" transform="translate(0.479492 0.724609)"/>
</clipPath>
</defs>
</svg>
