<svg width="19" height="19" viewBox="0 0 19 19" fill="none" xmlns="http://www.w3.org/2000/svg">
<path d="M9.57184 0.439453C4.64561 0.439453 0.653076 4.43199 0.653076 9.35821C0.653076 14.2844 4.64561 18.277 9.57184 18.277C14.4981 18.277 18.4906 14.2844 18.4906 9.35821C18.4906 4.43199 14.4981 0.439453 9.57184 0.439453ZM6.97982 13.9221H4.80936V7.38633H6.97982V13.9221ZM5.89285 6.49445H5.87891C5.15078 6.49445 4.67697 5.99277 4.67697 5.36567C4.67697 4.72464 5.16123 4.23689 5.90678 4.23689C6.65234 4.23689 7.10873 4.72464 7.12266 5.36567C7.12266 5.99277 6.65234 6.49445 5.89285 6.49445ZM14.8116 13.9221H12.6411V10.4278C12.6411 9.54983 12.3276 8.9506 11.5402 8.9506C10.941 8.9506 10.5822 9.35473 10.4254 9.74492C10.3696 9.88428 10.3522 10.0794 10.3522 10.2745V13.9221H8.18176C8.18176 13.9221 8.20963 7.9995 8.18176 7.38633H10.3522V8.31305C10.6414 7.86711 11.157 7.23304 12.3102 7.23304C13.7386 7.23304 14.8116 8.16672 14.8116 10.1734V13.9221Z" fill="white"/>
</svg>
