<svg id="Layer_1" data-name="Layer 1" xmlns="http://www.w3.org/2000/svg" viewBox="0 0 60 60"><defs><style>.cls-1{fill:#ccae7f;}</style></defs><title>logo</title><path d="M20.06,8a19.38,19.38,0,0,1,4.75-4.18l.12-.08V3.23H9.46V7.63c0,.1,0,.19,0,.29V54.33a2.45,2.45,0,0,0,4.89,0V8.12H20Z"/><path d="M36.55,37l-.15,0A19.19,19.19,0,0,1,30.63,37l-.72-.12L46.25,55.91a2.44,2.44,0,0,0,1.85.84,2.44,2.44,0,0,0,1.84-4Z"/><path class="cls-1" d="M49.92,19.19a16,16,0,1,0-16,16A16,16,0,0,0,49.92,19.19ZM34,8.12A11.07,11.07,0,1,1,22.9,19.19,11.09,11.09,0,0,1,34,8.12Z"/></svg>