<?xml version="1.0" encoding="utf-8"?>
<!-- Generator: Adobe Illustrator 23.0.3, SVG Export Plug-In . SVG Version: 6.00 Build 0)  -->
<svg version="1.1" id="Layer_1" xmlns="http://www.w3.org/2000/svg" xmlns:xlink="http://www.w3.org/1999/xlink" x="0px" y="0px"
	 viewBox="0 0 60 60" style="enable-background:new 0 0 60 60;" xml:space="preserve">
<style type="text/css">
	.st0{fill:#FFFFFF;}
	.st1{fill:#CCAE7F;}
</style>
<title>logo</title>
<path class="st0" d="M20.1,8c1.3-1.6,2.9-3.1,4.8-4.2l0.1-0.1V3.2H9.5v4.4c0,0.1,0,0.2,0,0.3v46.4c0.1,1.4,1.3,2.4,2.6,2.3
	c1.2-0.1,2.2-1.1,2.3-2.3V8.1H20L20.1,8z"/>
<path class="st0" d="M36.5,37h-0.2c-1.9,0.3-3.9,0.3-5.8,0l-0.7-0.1l16.3,19c0.5,0.5,1.1,0.8,1.8,0.8c1.3,0,2.4-1.1,2.4-2.5
	c0-0.6-0.2-1.1-0.6-1.5L36.5,37z"/>
<path class="st1" d="M49.9,19.2c0-8.8-7.2-16-16-16s-16,7.2-16,16s7.2,16,16,16S49.9,28,49.9,19.2L49.9,19.2z M34,8.1
	c6.1,0,11.1,5,11,11.1c0,6.1-5,11.1-11.1,11c-6.1,0-11-5-11-11.1C22.9,13.1,27.9,8.1,34,8.1z"/>
</svg>
